<?xml version="1.0" encoding="utf-8"?>
<!-- Generator: Adobe Illustrator 25.4.1, SVG Export Plug-In . SVG Version: 6.00 Build 0)  -->
<svg version="1.1" id="Layer_1" xmlns="http://www.w3.org/2000/svg" xmlns:xlink="http://www.w3.org/1999/xlink" x="0px" y="0px"
	 viewBox="0 0 119 75" style="enable-background:new 0 0 119 75;" xml:space="preserve">
<style type="text/css">
	.st0{fill:#8C2FB2;}
	.st1{fill:#35BC65;}
	.st2{fill-rule:evenodd;clip-rule:evenodd;fill:url(#SVGID_1_);}
	
		.st3{clip-path:url(#SVGID_00000042729201407045513280000013985047217871618709_);fill-rule:evenodd;clip-rule:evenodd;fill:#F2F2F2;}
	.st4{fill-rule:evenodd;clip-rule:evenodd;fill:#FFFFFF;}
	.st5{fill-rule:evenodd;clip-rule:evenodd;fill:url(#SVGID_00000130612717168221383690000005535007263620246661_);}
	.st6{fill-rule:evenodd;clip-rule:evenodd;fill:url(#SVGID_00000120522957644010035400000014500012012610575514_);}
</style>
<g>
	<g>
		<g>
			<path class="st0" d="M14.2,55.6c-0.1-1-0.5-1.7-1.1-2.2c-0.6-0.5-1.6-0.7-2.8-0.7C8.1,52.7,7,53.5,7,55c0,0.5,0.2,1,0.7,1.4
				c0.5,0.4,1.2,0.7,2.3,0.9c1.2,0.3,2.3,0.5,3.2,0.8c0.9,0.3,1.7,0.5,2.5,0.9c0.4,0.2,0.8,0.4,1.2,0.7c0.4,0.3,0.7,0.6,0.9,1
				c0.3,0.4,0.5,0.8,0.6,1.4s0.2,1.2,0.2,2c0,0.9-0.2,1.7-0.6,2.4c-0.4,0.7-0.9,1.3-1.6,1.8c-0.7,0.5-1.4,0.9-2.3,1.1
				s-1.8,0.4-2.8,0.4c-2.8,0-4.9-0.5-6.3-1.6S3,65.5,2.9,63.4h3.8c0,1,0.4,1.8,1.2,2.3c0.8,0.6,1.8,0.9,2.9,0.9
				c1.3,0,2.2-0.2,2.9-0.7c0.6-0.5,1-1.1,1-1.9c0-0.3,0-0.6-0.1-0.9c-0.1-0.3-0.2-0.5-0.5-0.7c-0.2-0.2-0.5-0.4-0.9-0.6
				c-0.4-0.2-0.9-0.3-1.5-0.4c-1.5-0.3-2.7-0.6-3.8-0.9c-1.1-0.3-2-0.7-2.6-1.2c-0.7-0.5-1.2-1-1.5-1.7S3.3,56.1,3.3,55
				c0-0.8,0.1-1.5,0.4-2.2C4,52.1,4.5,51.5,5,51c0.6-0.5,1.3-0.9,2.2-1.2c0.9-0.3,1.9-0.4,3.1-0.4c1.1,0,2.2,0.1,3.1,0.4
				c0.9,0.3,1.7,0.7,2.4,1.3c0.7,0.5,1.2,1.2,1.6,2c0.4,0.8,0.6,1.6,0.6,2.6L14.2,55.6L14.2,55.6z"/>
			<path class="st0" d="M30.6,69.1v-4.9c0-0.9-0.2-1.6-0.6-2s-1.2-0.6-2.4-0.6h-4.3v7.5h-3.9V49.9h9.7c0.9,0,1.7,0.1,2.4,0.4
				s1.3,0.7,1.9,1.1s0.9,1.1,1.2,1.8c0.3,0.7,0.4,1.4,0.4,2.2c0,1-0.2,2-0.7,2.8c-0.5,0.8-1.2,1.3-2.1,1.7c0.8,0.3,1.4,0.7,1.8,1.2
				s0.5,1.4,0.5,2.5v5.4H30.6z M23.3,53.3v5.1h5c1.1,0,1.8-0.2,2.3-0.7c0.4-0.5,0.7-1.1,0.7-1.8c0-0.7-0.2-1.3-0.7-1.8
				c-0.4-0.5-1.1-0.7-2.2-0.7H23.3L23.3,53.3z"/>
			<path class="st0" d="M47.9,69.1l-8.2-12.8v12.8H36V49.9h4.2l7.6,12.3V49.9h3.7v19.1L47.9,69.1L47.9,69.1z"/>
		</g>
	</g>
	<g>
		<g>
			<path class="st1" d="M56.9,60.9V49.9h2.3v10.9H56.9z"/>
			<path class="st1" d="M65.5,60.9V56c0-0.6-0.1-1-0.3-1.3c-0.2-0.2-0.6-0.3-1.1-0.3c-1.1,0-1.7,0.6-1.7,1.9v4.7h-2.1v-8.1h2V54
				c0.3-0.5,0.6-0.8,1-1.1c0.4-0.2,0.9-0.3,1.6-0.3c0.4,0,0.7,0.1,1.1,0.2c0.3,0.1,0.6,0.3,0.8,0.5c0.2,0.2,0.4,0.5,0.5,0.9
				c0.1,0.3,0.2,0.7,0.2,1.1v5.6L65.5,60.9L65.5,60.9z"/>
			<path class="st1" d="M69.8,60.9v-6.6h-1.2v-1.5h1.2c0-2,1.1-3,3.4-3v1.7c-0.3,0-0.5,0-0.7,0.1c-0.2,0-0.3,0.1-0.4,0.2
				S72,52,72,52.2c0,0.2-0.1,0.3-0.1,0.6h1.4v1.5h-1.4v6.6L69.8,60.9L69.8,60.9z"/>
			<path class="st1" d="M78.1,61.1c-0.7,0-1.2-0.1-1.8-0.3c-0.5-0.2-0.9-0.5-1.3-0.9c-0.3-0.4-0.6-0.8-0.8-1.3s-0.3-1.1-0.3-1.7
				c0-0.6,0.1-1.2,0.3-1.8c0.2-0.5,0.5-1,0.8-1.3c0.4-0.4,0.8-0.7,1.3-0.9c0.5-0.2,1.1-0.3,1.7-0.3c0.6,0,1.2,0.1,1.7,0.3
				c0.5,0.2,0.9,0.5,1.3,0.9c0.3,0.4,0.6,0.8,0.8,1.3c0.2,0.5,0.3,1.1,0.3,1.8s-0.1,1.2-0.3,1.8c-0.2,0.5-0.5,1-0.8,1.3
				c-0.3,0.4-0.8,0.7-1.3,0.9C79.3,61,78.7,61.1,78.1,61.1z M78.1,59.3c1.3,0,2-0.8,2-2.5c0-1.6-0.7-2.4-2-2.4c-1.3,0-2,0.8-2,2.4
				C76.2,58.5,76.8,59.3,78.1,59.3z"/>
			<path class="st1" d="M87.9,55.5h2v2.3c0,0.4-0.1,0.8-0.2,1.2c-0.1,0.4-0.3,0.7-0.6,1c-0.3,0.3-0.6,0.5-1,0.7
				c-0.4,0.2-0.9,0.3-1.5,0.3c-0.6,0-1.1-0.1-1.5-0.3c-0.4-0.2-0.7-0.4-1-0.7c-0.3-0.3-0.5-0.6-0.6-1c-0.1-0.4-0.2-0.8-0.2-1.3v-7.2
				h2.1v2.2h4.5v1.5h-4.5v3.3c0,0.5,0.1,0.9,0.3,1.2c0.2,0.3,0.5,0.4,0.9,0.4s0.7-0.1,0.9-0.4c0.2-0.3,0.3-0.7,0.3-1.2L87.9,55.5
				L87.9,55.5z"/>
			<path class="st1" d="M93,57.4c0,0.6,0.2,1.1,0.5,1.5c0.3,0.4,0.7,0.5,1.3,0.5c0.3,0,0.7-0.1,0.9-0.2c0.3-0.1,0.4-0.4,0.5-0.7h2.2
				c-0.3,0.8-0.7,1.5-1.3,1.9s-1.4,0.7-2.2,0.7c-2.7,0-4-1.5-4-4.4c0-0.6,0.1-1.2,0.3-1.7c0.2-0.5,0.4-0.9,0.8-1.3
				c0.3-0.3,0.7-0.6,1.2-0.8c0.5-0.2,1-0.3,1.7-0.3c1.3,0,2.2,0.4,2.8,1.2c0.6,0.8,1,2,1,3.6L93,57.4L93,57.4z M96.4,56
				c0-0.3-0.1-0.5-0.1-0.8c-0.1-0.2-0.2-0.4-0.4-0.6c-0.1-0.1-0.3-0.3-0.5-0.3c-0.2-0.1-0.4-0.1-0.6-0.1c-0.4,0-0.8,0.1-1.1,0.5
				c-0.3,0.3-0.5,0.7-0.5,1.3L96.4,56L96.4,56z"/>
			<path class="st1" d="M107,58c-0.1,0.5-0.2,0.9-0.4,1.3c-0.2,0.4-0.5,0.7-0.8,1c-0.3,0.3-0.7,0.5-1.1,0.6
				c-0.4,0.1-0.9,0.2-1.4,0.2c-0.5,0-1.1-0.1-1.5-0.3c-0.4-0.2-0.9-0.5-1.2-0.8c-0.3-0.4-0.6-0.8-0.8-1.4c-0.2-0.5-0.3-1.2-0.3-1.9
				c0-0.7,0.1-1.3,0.3-1.9c0.2-0.5,0.4-0.9,0.8-1.3c0.3-0.3,0.7-0.6,1.2-0.7s1-0.3,1.6-0.3c0.5,0,1,0.1,1.4,0.2
				c0.4,0.1,0.8,0.3,1.1,0.6c0.3,0.3,0.6,0.6,0.8,1c0.2,0.4,0.3,0.8,0.3,1.3h-2.2c-0.1-0.4-0.2-0.7-0.5-1s-0.6-0.3-1-0.3
				c-0.2,0-0.5,0-0.6,0.1c-0.2,0.1-0.4,0.2-0.5,0.4c-0.1,0.2-0.3,0.4-0.3,0.7c-0.1,0.3-0.1,0.7-0.1,1.1c0,0.9,0.2,1.6,0.5,2
				c0.3,0.4,0.7,0.6,1.1,0.6c0.4,0,0.8-0.1,1.1-0.3s0.5-0.6,0.5-1L107,58L107,58z"/>
			<path class="st1" d="M113.2,60.9v-5c0-0.6-0.1-1-0.3-1.3s-0.6-0.3-1.1-0.3c-0.3,0-0.5,0.1-0.7,0.1c-0.2,0.1-0.4,0.3-0.5,0.4
				c-0.1,0.2-0.3,0.4-0.3,0.6c-0.1,0.2-0.1,0.5-0.1,0.8v4.7H108V49.8h2.2v4c0.1-0.2,0.2-0.3,0.3-0.5c0.1-0.1,0.3-0.3,0.5-0.4
				c0.2-0.1,0.4-0.2,0.7-0.3c0.3-0.1,0.5-0.1,0.8-0.1c0.8,0,1.5,0.2,2,0.7c0.5,0.5,0.8,1.1,0.8,1.9v5.7L113.2,60.9L113.2,60.9z"/>
		</g>
	</g>
	<g>
		<path class="st0" d="M61.3,65.2h0.5l-1.2,3.8H60L59.2,66l-0.9,3.1h-0.5l-1.1-3.8h0.5l0.9,3.3l0.9-3.3h0.5l0.9,3.3L61.3,65.2z"/>
		<path class="st0" d="M63.6,69.1c-0.4,0-0.8-0.1-1.1-0.4c-0.3-0.3-0.4-0.7-0.4-1.1c0-0.5,0.1-0.9,0.4-1.1c0.3-0.3,0.6-0.4,1.1-0.4
			c0.4,0,0.8,0.1,1.1,0.4c0.3,0.3,0.4,0.6,0.4,1c0,0.1,0,0.2,0,0.3h-2.4c0,0.3,0.1,0.5,0.3,0.7c0.2,0.2,0.4,0.3,0.7,0.3
			c0.2,0,0.4-0.1,0.5-0.1c0.1-0.1,0.3-0.2,0.3-0.4H65c-0.1,0.3-0.3,0.5-0.5,0.7C64.3,69,64,69.1,63.6,69.1z M64.3,66.7
			c-0.2-0.2-0.4-0.3-0.7-0.3c-0.3,0-0.5,0.1-0.7,0.3c-0.2,0.2-0.3,0.4-0.3,0.7h1.9C64.6,67.1,64.5,66.8,64.3,66.7z"/>
		<path class="st0" d="M67.8,68.5c-0.4-0.4-0.6-0.8-0.6-1.4c0-0.6,0.2-1,0.6-1.4s0.8-0.5,1.4-0.5c0.4,0,0.7,0.1,1.1,0.3
			c0.3,0.2,0.5,0.5,0.7,0.8h-0.6c-0.2-0.4-0.6-0.7-1.1-0.7c-0.4,0-0.8,0.1-1,0.4c-0.3,0.3-0.4,0.6-0.4,1.1c0,0.5,0.1,0.8,0.4,1.1
			c0.3,0.3,0.6,0.4,1,0.4c0.3,0,0.5-0.1,0.7-0.2c0.2-0.1,0.3-0.3,0.5-0.5h0.6c-0.1,0.3-0.4,0.6-0.7,0.8C69.9,69,69.6,69,69.2,69
			C68.6,69.1,68.1,68.9,67.8,68.5z"/>
		<path class="st0" d="M72.2,66v0.5c0.2-0.4,0.5-0.6,0.9-0.6v0.5H73c-0.3,0-0.5,0.1-0.6,0.2c-0.1,0.1-0.2,0.4-0.2,0.7V69h-0.5v-3
			H72.2L72.2,66z"/>
		<path class="st0" d="M75,69.1c-0.4,0-0.8-0.1-1.1-0.4c-0.3-0.3-0.4-0.7-0.4-1.1c0-0.5,0.1-0.9,0.4-1.1c0.3-0.3,0.6-0.4,1.1-0.4
			s0.8,0.1,1.1,0.4c0.3,0.3,0.4,0.6,0.4,1c0,0.1,0,0.2,0,0.3h-2.4c0,0.3,0.1,0.5,0.3,0.7c0.2,0.2,0.4,0.3,0.7,0.3
			c0.2,0,0.4-0.1,0.5-0.1c0.1-0.1,0.3-0.2,0.3-0.4h0.5c-0.1,0.3-0.3,0.5-0.5,0.7C75.7,69,75.4,69.1,75,69.1z M75.7,66.7
			c-0.2-0.2-0.4-0.3-0.7-0.3c-0.3,0-0.5,0.1-0.7,0.3c-0.2,0.2-0.3,0.4-0.3,0.7H76C76,67.1,75.9,66.8,75.7,66.7z"/>
		<path class="st0" d="M77.4,68.7C77.1,68.4,77,68,77,67.5s0.1-0.8,0.4-1.1c0.3-0.3,0.6-0.4,1-0.4c0.3,0,0.5,0.1,0.7,0.2
			c0.2,0.1,0.3,0.3,0.4,0.5V66H80v3h-0.5v-0.6c-0.1,0.2-0.3,0.4-0.4,0.5c-0.2,0.1-0.4,0.2-0.7,0.2C78,69.1,77.7,69,77.4,68.7z
			 M79.2,68.4c0.2-0.2,0.3-0.5,0.3-0.8s-0.1-0.6-0.3-0.8c-0.2-0.2-0.4-0.3-0.7-0.3s-0.5,0.1-0.7,0.3c-0.2,0.2-0.3,0.5-0.3,0.8
			s0.1,0.6,0.3,0.8c0.2,0.2,0.4,0.3,0.7,0.3C78.8,68.7,79,68.6,79.2,68.4z"/>
		<path class="st0" d="M81.9,68.7h0.4v0.4h-0.5c-0.5,0-0.8-0.3-0.8-0.8v-1.9h-0.4V66H81v-0.7h0.5V66h0.8v0.4h-0.8v1.9
			c0,0.1,0,0.2,0.1,0.3C81.6,68.6,81.7,68.7,81.9,68.7z"/>
		<path class="st0" d="M84.1,69.1c-0.4,0-0.8-0.1-1.1-0.4c-0.3-0.3-0.4-0.7-0.4-1.1c0-0.5,0.1-0.9,0.4-1.1c0.3-0.3,0.6-0.4,1.1-0.4
			c0.4,0,0.8,0.1,1.1,0.4c0.3,0.3,0.4,0.6,0.4,1c0,0.1,0,0.2,0,0.3h-2.4c0,0.3,0.1,0.5,0.3,0.7c0.2,0.2,0.4,0.3,0.7,0.3
			c0.2,0,0.4-0.1,0.5-0.1c0.1-0.1,0.3-0.2,0.3-0.4h0.5c-0.1,0.3-0.3,0.5-0.5,0.7C84.8,69,84.5,69.1,84.1,69.1z M84.8,66.7
			c-0.2-0.2-0.4-0.3-0.7-0.3s-0.5,0.1-0.7,0.3c-0.2,0.2-0.3,0.4-0.3,0.7h1.9C85.1,67.1,85,66.8,84.8,66.7z"/>
		<path class="st0" d="M87.9,69.1v-3.8h0.5v3.8H87.9L87.9,69.1z"/>
		<path class="st0" d="M89.7,66v0.5c0.2-0.4,0.5-0.5,1-0.5c0.3,0,0.6,0.1,0.8,0.3c0.2,0.2,0.3,0.5,0.3,0.9v1.8h-0.5v-1.7
			c0-0.3-0.1-0.5-0.2-0.7c-0.1-0.1-0.3-0.2-0.6-0.2s-0.5,0.1-0.6,0.2c-0.1,0.1-0.2,0.4-0.2,0.7v1.7h-0.5v-3H89.7L89.7,66z"/>
		<path class="st0" d="M93.2,66v0.5c0.2-0.4,0.5-0.5,1-0.5c0.3,0,0.6,0.1,0.8,0.3c0.2,0.2,0.3,0.5,0.3,0.9v1.8h-0.5v-1.7
			c0-0.3-0.1-0.5-0.2-0.7c-0.1-0.1-0.3-0.2-0.6-0.2s-0.5,0.1-0.6,0.2c-0.1,0.1-0.2,0.4-0.2,0.7v1.7h-0.5v-3H93.2L93.2,66z"/>
		<path class="st0" d="M96.4,68.7C96.1,68.4,96,68,96,67.5c0-0.5,0.1-0.9,0.4-1.1c0.3-0.3,0.7-0.4,1.1-0.4c0.4,0,0.8,0.1,1.1,0.4
			c0.3,0.3,0.4,0.7,0.4,1.1c0,0.5-0.1,0.8-0.5,1.1c-0.3,0.3-0.7,0.4-1.1,0.4C97.1,69.1,96.7,69,96.4,68.7z M97.5,68.7
			c0.3,0,0.5-0.1,0.7-0.3s0.3-0.5,0.3-0.9s-0.1-0.6-0.3-0.9c-0.2-0.2-0.4-0.3-0.7-0.3c-0.3,0-0.5,0.1-0.7,0.3
			c-0.2,0.2-0.3,0.5-0.3,0.9s0.1,0.7,0.3,0.9C97,68.6,97.2,68.7,97.5,68.7z"/>
		<path class="st0" d="M99.4,66h0.5l0.9,2.6l0.9-2.6h0.5l-1.2,3h-0.6L99.4,66z"/>
		<path class="st0" d="M103,68.7c-0.3-0.3-0.4-0.7-0.4-1.1s0.1-0.8,0.4-1.1c0.3-0.3,0.6-0.4,1-0.4c0.3,0,0.5,0.1,0.7,0.2
			c0.2,0.1,0.3,0.3,0.4,0.5V66h0.5v3h-0.5v-0.6c-0.1,0.2-0.3,0.4-0.4,0.5c-0.2,0.1-0.4,0.2-0.7,0.2C103.7,69.1,103.3,69,103,68.7z
			 M104.9,68.4c0.2-0.2,0.3-0.5,0.3-0.8s-0.1-0.6-0.3-0.8c-0.2-0.2-0.4-0.3-0.7-0.3c-0.3,0-0.5,0.1-0.7,0.3
			c-0.2,0.2-0.3,0.5-0.3,0.8s0.1,0.6,0.3,0.8c0.2,0.2,0.4,0.3,0.7,0.3C104.5,68.7,104.7,68.6,104.9,68.4z"/>
		<path class="st0" d="M107.6,68.7h0.4v0.4h-0.5c-0.5,0-0.8-0.3-0.8-0.8v-1.9h-0.4V66h0.4v-0.7h0.5V66h0.8v0.4h-0.8v1.9
			c0,0.1,0,0.2,0.1,0.3C107.3,68.6,107.4,68.7,107.6,68.7z"/>
		<path class="st0" d="M109,65.4c-0.1,0.1-0.1,0.1-0.3,0.1c-0.1,0-0.2,0-0.2-0.1c-0.1-0.1-0.1-0.1-0.1-0.3c0-0.1,0-0.2,0.1-0.3
			c0.1-0.1,0.1-0.1,0.2-0.1c0.1,0,0.2,0,0.2,0.1c0.1,0.1,0.1,0.1,0.1,0.3C109.1,65.3,109.1,65.4,109,65.4z M108.5,69.1V66h0.5v3
			L108.5,69.1L108.5,69.1z"/>
		<path class="st0" d="M110.1,68.7c-0.3-0.3-0.4-0.7-0.4-1.1c0-0.5,0.1-0.9,0.4-1.1c0.3-0.3,0.7-0.4,1.1-0.4c0.4,0,0.8,0.1,1.1,0.4
			c0.3,0.3,0.4,0.7,0.4,1.1c0,0.5-0.1,0.8-0.5,1.1c-0.3,0.3-0.7,0.4-1.1,0.4C110.7,69.1,110.4,69,110.1,68.7z M111.2,68.7
			c0.3,0,0.5-0.1,0.7-0.3c0.2-0.2,0.3-0.5,0.3-0.9s-0.1-0.6-0.3-0.9c-0.2-0.2-0.4-0.3-0.7-0.3s-0.5,0.1-0.7,0.3s-0.3,0.5-0.3,0.9
			s0.1,0.7,0.3,0.9C110.7,68.6,110.9,68.7,111.2,68.7z"/>
		<path class="st0" d="M113.9,66v0.5c0.2-0.4,0.5-0.5,1-0.5c0.3,0,0.6,0.1,0.8,0.3c0.2,0.2,0.3,0.5,0.3,0.9v1.8h-0.5v-1.7
			c0-0.3-0.1-0.5-0.2-0.7c-0.1-0.1-0.3-0.2-0.6-0.2c-0.3,0-0.5,0.1-0.6,0.2c-0.1,0.1-0.2,0.4-0.2,0.7v1.7h-0.5v-3H113.9L113.9,66z"
			/>
	</g>
	<g>
		<linearGradient id="SVGID_1_" gradientUnits="userSpaceOnUse" x1="42.609" y1="23.8293" x2="79.8377" y2="23.8293">
			<stop  offset="0" style="stop-color:#E63CB6"/>
			<stop  offset="0.5149" style="stop-color:#8B3BE6"/>
			<stop  offset="0.5549" style="stop-color:#843AE1"/>
			<stop  offset="1" style="stop-color:#3532A6"/>
		</linearGradient>
		<path class="st2" d="M61.2,42.4c10.3,0,18.6-8.4,18.6-18.6c0-10.3-8.4-18.6-18.6-18.6s-18.6,8.4-18.6,18.6
			C42.6,34.1,51,42.4,61.2,42.4L61.2,42.4z"/>
		<g>
			<defs>
				<path id="SVGID_00000101092244879980533560000008039332166838804925_" d="M61.2,42.4c10.3,0,18.6-8.4,18.6-18.6
					c0-10.3-8.4-18.6-18.6-18.6s-18.6,8.4-18.6,18.6C42.6,34.1,51,42.4,61.2,42.4L61.2,42.4z"/>
			</defs>
			<clipPath id="SVGID_00000113334624171062284980000017834019109310650302_">
				<use xlink:href="#SVGID_00000101092244879980533560000008039332166838804925_"  style="overflow:visible;"/>
			</clipPath>
			
				<path style="clip-path:url(#SVGID_00000113334624171062284980000017834019109310650302_);fill-rule:evenodd;clip-rule:evenodd;fill:#F2F2F2;" d="
				M90.1,30.3c5-6.5,0.8-18.2-9.4-26.1c-10.2-7.9-22.6-9-27.6-2.5c-5,6.5-0.8,18.2,9.4,26.1C72.8,35.7,85.1,36.8,90.1,30.3
				L90.1,30.3z"/>
		</g>
		<path class="st4" d="M74,34c0,1.5-0.3,2.8-0.8,4.1c9.7-8.3,6.1-21.6-5.7-25.8c-1.7-0.6-3.3-0.9-4.9-0.9c-2.3,0-5.4,1-5.4,3.8
			c0,2.6,4.5,5,6.5,6.1C69,24.3,74,27.1,74,34L74,34z"/>
		
			<linearGradient id="SVGID_00000017517875000262740390000002988429040351347132_" gradientUnits="userSpaceOnUse" x1="57.2741" y1="24.7208" x2="78.7842" y2="24.7208">
			<stop  offset="0" style="stop-color:#45E6BB"/>
			<stop  offset="1" style="stop-color:#42D06E"/>
		</linearGradient>
		<path style="fill-rule:evenodd;clip-rule:evenodd;fill:url(#SVGID_00000017517875000262740390000002988429040351347132_);" d="
			M59.8,14.4c1.6,0,3.2,0.3,4.9,0.9C75.1,19,79.2,29.8,73.3,38c9.7-8.3,6-21.6-5.7-25.8c-1.7-0.6-3.3-0.9-4.9-0.9
			c-2.2,0-5.1,0.9-5.3,3.4C58.1,14.5,59,14.4,59.8,14.4L59.8,14.4z"/>
		<path class="st4" d="M48.3,13.8c0-1.5,0.3-2.8,0.8-4.1C39.4,18,43,31.3,54.8,35.5c1.7,0.6,3.3,0.9,4.9,0.9c2.4,0,5.4-1,5.4-3.8
			c0-2.6-4.5-5-6.5-6.1C53.3,23.5,48.3,20.7,48.3,13.8L48.3,13.8z"/>
		
			<linearGradient id="SVGID_00000059307589691693513060000004771042798975036092_" gradientUnits="userSpaceOnUse" x1="43.5104" y1="23.0687" x2="65.0204" y2="23.0687">
			<stop  offset="0" style="stop-color:#45E6BB"/>
			<stop  offset="1" style="stop-color:#42D06E"/>
		</linearGradient>
		<path style="fill-rule:evenodd;clip-rule:evenodd;fill:url(#SVGID_00000059307589691693513060000004771042798975036092_);" d="
			M62.5,33.4c-1.6,0-3.2-0.3-4.9-0.9C47.2,28.8,43.1,17.9,49,9.8c-9.7,8.3-6,21.6,5.7,25.7c1.7,0.6,3.3,0.9,4.9,0.9
			c2.2,0,5.1-0.9,5.3-3.4C64.2,33.2,63.3,33.4,62.5,33.4L62.5,33.4z"/>
	</g>
</g>
</svg>
